<svg width="18" height="16" viewBox="0 0 18 16" fill="none" xmlns="http://www.w3.org/2000/svg">
<path d="M2.01214 15H8.12716L8.09257 15.1313C8.02026 15.425 8.03912 15.725 8.13659 16H2.01214C0.900747 16 0 15.1031 0 14V2C0 0.895313 0.900747 0 2.01214 0H6.91987C7.31916 0 7.70586 0.158031 7.98882 0.439375L11.6295 4.05937C11.9125 4.34062 12.0728 4.725 12.0728 5.12187V9.3625L11.0668 10.3625V6H7.54552C6.71237 6 6.03642 5.32812 6.03642 4.5V1H2.01214C1.4566 1 1.00607 1.44781 1.00607 2V14C1.00607 14.5531 1.4566 15 2.01214 15ZM10.919 4.76875L7.27514 1.14656C7.21226 1.08187 7.13052 1.03688 7.04249 1.015V4.5C7.04249 4.775 7.26885 5 7.54552 5H11.051C11.029 4.9125 10.985 4.83125 10.919 4.76875ZM14.8804 7.54375C15.4715 6.95625 16.4241 6.95625 17.0152 7.54375L17.5591 8.08438C18.147 8.66875 18.147 9.61875 17.5591 10.2031L12.7048 15.0031C12.5381 15.1938 12.2961 15.3313 12.032 15.3969L9.68027 15.9812C9.50736 16.025 9.32501 15.975 9.20239 15.85C9.07663 15.725 9.02633 15.5437 9.07035 15.3469L9.65827 13.0375C9.72429 12.775 9.85948 12.5312 10.0544 12.3406L14.8804 7.54375ZM16.3046 8.22188C16.1065 8.05313 15.789 8.05313 15.5909 8.22188L14.8144 9.025L16.0688 10.2719L16.8485 9.49687C17.0434 9.30312 17.0434 8.98438 16.8485 8.79062L16.3046 8.22188ZM10.6329 13.2531L10.221 14.8094L11.7867 14.425C11.8748 14.4031 11.9565 14.3594 12.0194 14.2937L15.3583 10.9781L14.1007 9.73125L10.7649 13.0469C10.7021 13.1125 10.6549 13.1906 10.6329 13.2531Z" fill="white"/>
</svg>
