<svg width="16" height="17" viewBox="0 0 16 17" fill="none" xmlns="http://www.w3.org/2000/svg">
<path d="M5.08032 8.47012C5.08032 6.88633 6.38765 5.54824 8.00024 5.54824C9.61283 5.54824 10.9202 6.88633 10.9202 8.47012C10.9202 10.1137 9.61283 11.4219 8.00024 11.4219C6.38765 11.4219 5.08032 10.1137 5.08032 8.47012ZM8.00024 6.61074C6.97495 6.61074 6.14211 7.47402 6.14211 8.47012C6.14211 9.52598 6.97495 10.3295 8.00024 10.3295C9.02553 10.3295 9.85837 9.52598 9.85837 8.47012C9.85837 7.47402 9.02553 6.61074 8.00024 6.61074ZM1.68493 7.65664L0.346741 6.43477C-0.0222299 6.09941 -0.107173 5.55156 0.142347 5.11992L1.14574 3.38008C1.39526 2.94777 1.91188 2.74756 2.38736 2.8993L4.11144 3.4498C4.55607 3.10648 5.04714 2.82094 5.5714 2.60412L5.95962 0.835391C6.06579 0.347637 6.49715 0 6.99818 0H9.0023C9.50333 0 9.93468 0.347637 10.0409 0.835391L10.4291 2.60412C10.9235 2.82094 11.4444 3.10648 11.889 3.4498L13.6144 2.8993C14.0889 2.74756 14.6065 2.94777 14.8554 3.38008L15.8575 5.11992C16.1063 5.55156 16.0234 6.09941 15.6551 6.43477L14.3146 7.65664C14.3511 7.93223 14.371 8.21445 14.371 8.47012C14.371 8.78555 14.3511 9.06777 14.3146 9.34336L15.6551 10.5652C16.0234 10.9006 16.1063 11.4484 15.8575 11.8801L14.8554 13.6199C14.6065 14.0516 14.0889 14.2508 13.6144 14.1014L11.889 13.5502C11.4444 13.8922 10.9235 14.1777 10.4291 14.3969L10.0409 16.1633C9.93468 16.6514 9.50333 17 9.0023 17H6.99818C6.49715 17 6.06579 16.6514 5.95962 16.1633L5.5714 14.3969C5.04714 14.1777 4.55607 13.8922 4.11144 13.5502L2.38736 14.1014C1.91188 14.2508 1.39526 14.0516 1.14574 13.6199L0.142347 11.8801C-0.107173 11.4484 -0.0222299 10.9006 0.346741 10.5652L1.68493 9.34336C1.64843 9.06777 1.62951 8.78555 1.62951 8.47012C1.62951 8.21445 1.64843 7.93223 1.68493 7.65664ZM4.76179 4.28984L4.32048 4.63184L2.06518 3.91133L1.06179 5.65117L2.81009 7.24492L2.73742 7.79609C2.7069 8.0252 2.6913 8.26094 2.6913 8.47012C2.6913 8.73906 2.7069 8.9748 2.73742 9.20391L2.81009 9.75508L1.06179 11.3488L2.06518 13.0887L4.32048 12.3682L4.76179 12.7102C5.13009 12.9957 5.54154 13.2348 5.97621 13.3842L6.49051 13.6266L6.99818 15.9375H9.0023L9.50997 13.6266L9.99441 13.3842C10.4589 13.2348 10.8704 12.9957 11.2387 12.7102L11.68 12.3682L13.9363 13.0887L14.9384 11.3488L13.1897 9.75508L13.2627 9.20391C13.2926 8.9748 13.3092 8.73906 13.3092 8.5C13.3092 8.26094 13.2926 8.0252 13.2627 7.79609L13.1897 7.24492L14.9384 5.65117L13.9363 3.91133L11.68 4.63184L11.2387 4.28984C10.8704 4.0043 10.4589 3.76523 9.99441 3.58594L9.50997 3.37344L9.0023 1.0625H6.99818L6.49051 3.37344L5.97621 3.58594C5.54154 3.76523 5.13009 4.0043 4.76179 4.28984Z" fill="white"/>
</svg>
