<svg width="18" height="16" viewBox="0 0 18 16" fill="none" xmlns="http://www.w3.org/2000/svg">
<path d="M8.67107 0.125062C8.86175 -0.0416875 9.14307 -0.0416875 9.33375 0.125062L12.0032 2.48031V1.75C12.0032 1.33594 12.3377 0.971875 12.7534 0.971875H15.2541C15.6698 0.971875 16.0043 1.33594 16.0043 1.75V6.00938L17.836 7.625C18.0423 7.80625 18.0611 8.09688 17.8516 8.33125C17.6985 8.5375 17.3796 8.55625 17.1733 8.34688L16.0043 7.31563V13.5C16.0043 14.8813 14.8852 16 13.5036 16H4.50121C3.12021 16 2.00054 14.8813 2.00054 13.5V7.31563L0.831166 8.34688C0.623923 8.55625 0.30787 8.5375 0.125134 8.33125C-0.0576337 8.09688 -0.0378784 7.80625 0.169239 7.625L8.67107 0.125062ZM15.004 5.12813V2H13.0035V3.3625L15.004 5.12813ZM3.00081 6.45937V13.5C3.00081 14.3281 3.67286 15 4.50121 15H6.50174V10C6.50174 9.44687 6.94874 9 7.50201 9H10.5028C11.0561 9 11.5031 9.44687 11.5031 10V15H13.5036C14.332 15 15.004 14.3281 15.004 13.5V6.45937L9.00241 1.16688L3.00081 6.45937ZM7.50201 10V15H10.5028V10H7.50201Z" fill="white"/>
</svg>
