<svg width="14" height="16" viewBox="0 0 14 16" fill="none" xmlns="http://www.w3.org/2000/svg">
<path d="M3.5 10H10.5C10.7761 10 11 9.77612 11 9.5C11 9.225 10.775 9 10.5 9H3.5C3.225 9 3 9.225 3 9.5C3 9.775 3.225 10 3.5 10ZM3.5 7H10.5C10.775 7 11 6.775 11 6.5C11 6.225 10.775 6 10.5 6H3.5C3.225 6 3 6.225 3 6.5C3 6.775 3.225 7 3.5 7ZM3.5 13H7.5C7.77612 13 8 12.7761 8 12.5C8 12.2238 7.77612 12 7.5 12H3.5C3.225 12 3 12.225 3 12.5C3 12.775 3.225 13 3.5 13ZM12 0H2C0.895313 0 0 0.895313 0 2V14C0 15.1047 0.895313 16 2 16H12C13.1047 16 14 15.1047 14 14V2C14 0.895313 13.1031 0 12 0ZM13 14C13 14.5513 12.5513 15 12 15H2C1.44875 15 1 14.5513 1 14V4H13V14ZM13 3H1V2C1 1.44875 1.44875 1 2 1H12C12.5513 1 13 1.44875 13 2V3Z" fill="#666666"/>
</svg>
