<svg width="55" height="44" viewBox="0 0 55 44" fill="none" xmlns="http://www.w3.org/2000/svg">
<path d="M25.4375 17.8754C26.5805 17.8754 27.5 16.9558 27.5 15.8128C27.5 14.6698 26.5805 13.7503 25.4375 13.7503C24.2945 13.7503 23.375 14.6698 23.375 15.8128C23.375 16.9558 24.2945 17.8754 25.4375 17.8754ZM24.8703 31.9694L17.7375 27.3544L15.1809 36.7562C15.1459 36.8844 15.1295 37.0101 15.1295 37.1315C15.1295 37.8991 15.7832 38.4962 16.5131 38.4962C17.1254 38.4855 17.6733 38.0772 17.834 37.4761L19.4023 31.7955L23.3761 34.2964V37.1109C23.3761 37.8734 23.9884 38.4085 24.6738 38.4085C25.3591 38.4085 26.0488 37.8068 26.0488 37.0438L26.0483 34.219C26.125 33.3444 25.6523 32.4764 24.8703 31.9694ZM55 39.8672C55 39.0975 54.7758 38.3495 54.3306 37.6852L31.0578 1.79613C30.2845 0.598137 28.8939 0 27.5026 0C26.1112 0 24.7156 0.598824 23.9422 1.79613L0.669367 37.6843C0.224211 38.3491 0 39.0972 0 39.8663C0 40.5268 0.165086 41.2087 0.497492 41.8086C1.2338 43.1638 2.65968 44 4.19538 44H50.8079C53.0578 43.9235 55 42.1532 55 39.8672ZM52.2414 39.8844C52.2414 40.7696 51.4057 41.2422 50.8045 41.2422H4.19547C3.59674 41.2422 2.75859 40.765 2.75859 39.8844C2.75859 39.641 2.8289 39.3983 2.96785 39.1899L26.2453 3.30006C26.5375 2.89185 26.993 2.64521 27.5 2.64521C28.007 2.64521 28.4668 2.89228 28.7564 3.30049L52.0283 39.1887C52.1727 39.3945 52.2414 39.6437 52.2414 39.8844ZM39.6172 26.7013C39.282 26.3404 38.9383 26.1255 38.4227 26.1255C37.9741 26.1282 37.5555 26.3457 37.3003 26.7109L34.2762 31.0294L29.3373 27.9845L28.435 23.4409C28.1127 21.8296 26.8778 20.562 25.3842 20.2397L23.3406 19.6027C23.0656 19.5426 22.7648 19.5082 22.4641 19.5082C21.297 19.5082 20.0234 19.9927 19.1563 21.1608L18.1577 22.4929C18.0039 22.6965 17.8836 23.0231 17.8836 23.3669C17.8836 23.7739 18.0519 24.2091 18.5337 24.5047L27.4626 30.0151L32.2352 33.0006H30.9375C30.5051 33.0006 30.0969 33.2048 29.8366 33.5512L27.7741 36.3012C27.5896 36.548 27.5006 36.8368 27.5006 37.1234C27.5006 37.8769 28.1102 38.4984 28.8773 38.4984C29.2953 38.4984 29.7054 38.3112 29.9756 37.9498L31.625 35.7507H33.6875C34.136 35.7507 34.5572 35.5305 34.8124 35.1653L38.5103 29.8826L44.2544 37.9257C44.5242 38.3031 44.9453 38.5008 45.375 38.5008C46.3882 38.5008 46.7509 37.6018 46.7509 37.1249C46.7509 36.8481 46.6678 36.5686 46.4951 36.3254L39.6172 26.7013ZM21.2609 22.9372C21.564 22.5202 21.912 22.2632 22.428 22.2632C22.5074 22.2632 22.5909 22.2693 22.6787 22.2819L24.6768 22.8727C25.0938 23.0145 25.6609 23.1778 25.8156 23.9684L26.2238 25.9983L21.2609 22.9372Z" fill="#333333"/>
</svg>
