<svg width="189" height="38" viewBox="0 0 189 38" fill="none" xmlns="http://www.w3.org/2000/svg">
<path d="M179.413 26.3258C173.804 26.3258 170.195 22.2892 170.951 16.9817C171.64 12.0978 175.736 8.93868 180.528 8.93868C186.07 8.93868 189.679 12.6848 188.893 17.6958C188.826 18.1497 188.728 18.6702 188.6 19.0938H175.352C175.682 21.2725 177.285 22.6402 179.681 22.6402C181.455 22.6402 182.827 21.8595 183.619 20.7823H188.246C186.838 24.0685 183.686 26.3198 179.425 26.3198L179.413 26.3258ZM180.394 12.6183C178.26 12.6183 176.425 13.986 175.669 16.0013H184.589C184.326 13.9799 182.717 12.6183 180.388 12.6183H180.394Z" fill="white"/>
<path d="M161.684 26.3258C158.764 26.3258 156.368 25.2849 154.996 23.5904L153.649 25.9325H149.253L158.831 9.32601H163.72C163.854 13.9194 169.823 13.8528 168.902 20.2013C168.348 23.8506 165.653 26.3198 161.684 26.3198V26.3258ZM164.507 19.6506C164.866 17.1753 161.751 16.4249 160.568 13.756L156.929 20.171C157.648 21.4056 159.16 22.2226 160.965 22.2226C162.867 22.2226 164.275 21.2483 164.507 19.6506Z" fill="white"/>
<path d="M140.938 25.9385L146.62 15.735H151.168L145.394 25.9385H140.938Z" fill="white"/>
<path d="M121.496 25.9385L117.82 9.33206H122.575L124.447 20.5342L129.659 9.33206H134.025L136.091 20.5947L138.42 15.5474C139.536 13.0056 140.255 11.0871 140.158 9.32601H144.955C144.651 11.4744 143.895 13.4958 142.419 16.4552L137.634 25.9264H133.238L131.202 14.4036L125.886 25.9264H121.49L121.496 25.9385Z" fill="white"/>
<path d="M96.7752 25.9385L101.299 12.6848C101.415 12.3096 101.677 11.42 101.793 11.0266C102.067 10.1733 102.53 9.35627 103.792 9.47125C104.438 9.53177 104.853 9.59229 106.005 9.72543L116.418 11.0266L116.253 12.0373C114.022 14.6759 112.681 16.9877 112.419 18.9728C112.157 20.7944 113.01 21.8353 114.778 21.8353H118.411L117.82 25.9385H113.79C109.364 25.9385 107.328 23.3362 107.95 19.1362C108.182 17.5748 108.803 16.0436 109.883 14.4157L104.993 13.7984L100.957 25.9446H96.7569L96.7752 25.9385Z" fill="white"/>
<path d="M87.2647 26.3258C81.6559 26.3258 78.0468 22.2892 78.8028 16.9817C79.4917 12.0978 83.5885 8.93868 88.3803 8.93868C93.922 8.93868 97.5311 12.6848 96.7447 17.6958C96.6776 18.1497 96.5801 18.6702 96.452 19.0938H83.2044C83.5336 21.2725 85.137 22.6402 87.5329 22.6402C89.307 22.6402 90.6787 21.8595 91.4712 20.7823H96.0984C94.6902 24.0685 91.5383 26.3198 87.2769 26.3198L87.2647 26.3258ZM88.2462 12.6183C86.1124 12.6183 84.2774 13.986 83.5215 16.0013H92.4406C92.1784 13.9799 90.569 12.6183 88.2401 12.6183H88.2462Z" fill="white"/>
<path d="M66.427 25.9385L61.8669 9.33206H66.5916L69.3472 20.6976L72.1028 15.5534C73.383 13.0479 74.072 11.0629 73.9378 9.33206H78.4309C78.565 11.2203 77.8396 13.5321 76.1996 16.431L70.853 25.9385H66.427Z" fill="white"/>
<path d="M51.0761 26.3258C45.4674 26.3258 41.8583 22.2892 42.6142 16.9817C43.3031 12.0978 47.4 8.93868 52.1918 8.93868C57.7334 8.93868 61.3426 12.6848 60.5561 17.6958C60.489 18.1497 60.3915 18.6702 60.2635 19.0938H47.0159C47.3451 21.2725 48.9485 22.6402 51.3444 22.6402C53.1184 22.6402 54.4901 21.8595 55.2827 20.7823H59.9099C58.5016 24.0685 55.3497 26.3198 51.0883 26.3198L51.0761 26.3258ZM52.0577 12.6183C49.9239 12.6183 48.0889 13.986 47.3329 16.0013H56.252C55.9899 13.9799 54.3804 12.6183 52.0516 12.6183H52.0577Z" fill="white"/>
<path d="M148.412 11.5047C148.211 12.9693 149.168 14.0828 150.643 14.0828C151.893 14.0828 152.966 13.175 153.137 11.9162C153.338 10.4517 152.35 9.33811 150.906 9.33811C149.656 9.33811 148.583 10.2762 148.412 11.5047Z" fill="white"/>
<path d="M23.2702 8.58767L23.2885 8.53926C23.5506 7.86144 23.703 6.98391 23.703 6.53607C23.703 6.05192 23.5262 5.64644 23.2336 5.42252C22.9836 5.23491 22.6605 5.18649 22.3069 5.28333C21.9655 5.3741 21.7095 5.57382 21.5632 5.86431C21.3925 6.19717 21.3986 6.62685 21.5693 7.07469C21.7948 7.64357 21.8619 7.95222 21.7095 8.3577C21.6668 8.44243 21.6119 8.55741 21.5388 8.6724C21.4412 8.8237 21.3254 8.98105 21.1669 9.15655C20.0634 7.7162 18.332 6.86288 16.5275 6.86288C14.7229 6.86288 12.9915 7.7162 11.8881 9.15655C11.7601 9.01131 11.6503 8.86606 11.5528 8.72687C11.2053 8.10352 11.2358 7.81303 11.5223 7.07469C11.6991 6.62685 11.6991 6.19717 11.5284 5.86431C11.3821 5.57987 11.126 5.38016 10.7846 5.28333C10.431 5.18649 10.1079 5.23491 9.85797 5.42252C9.55925 5.64644 9.38854 6.05192 9.38245 6.53607C9.38245 6.84472 9.4556 7.36519 9.57753 7.84329C9.62631 8.12773 9.69946 8.41217 9.8031 8.67845C9.92503 8.9992 10.0531 9.25944 10.1994 9.49546C10.9919 10.7482 12.3331 11.6136 13.5219 12.3762C14.4852 12.9995 15.3936 13.5866 15.6862 14.1736C15.5521 14.3491 15.4545 14.5609 15.4545 14.803C15.4545 15.39 15.93 15.8621 16.5214 15.8621C17.1128 15.8621 17.5883 15.39 17.5883 14.803C17.5883 14.5609 17.4907 14.3491 17.3566 14.1736C17.6492 13.5866 18.5576 12.9935 19.5331 12.3641C20.7158 11.6015 22.057 10.7361 22.8495 9.48336C22.9958 9.24733 23.1239 8.99315 23.2397 8.6724C23.2519 8.64214 23.258 8.61793 23.2702 8.58767ZM20.0086 10.1854C19.6001 10.488 19.1612 10.7724 18.6795 11.0871C17.8565 11.6136 17.0823 12.1159 16.5214 12.7151C15.9605 12.1159 15.1863 11.6197 14.3633 11.0871C13.9426 10.8148 13.4671 10.5061 13.0342 10.1854C13.8451 9.06577 15.1436 8.40006 16.5214 8.40006C17.8992 8.40006 19.2038 9.06577 20.0086 10.1854Z" fill="white"/>
<path d="M34.6827 35.7366C34.4877 35.2645 34.1463 34.9377 33.7073 34.7804C33.1891 34.5988 32.5673 34.6835 31.9454 35.0164C30.7566 35.6579 30.1714 35.5671 28.7692 34.9135C21.8619 31.5184 15.7289 25.7933 17.5822 20.6552C18.326 18.5915 20.3256 17.5506 22.4533 18.1013C24.5443 18.652 25.8917 20.6915 26.4464 24.1593C26.9159 27.0823 26.6964 30.3262 26.5196 32.0025V32.051L26.5562 32.0752C27.0378 32.3717 27.5377 32.6562 28.0498 32.9345L28.1534 32.989L28.1717 32.874C28.2144 32.5351 28.3668 31.3005 28.44 29.6605C32.11 26.4287 34.2133 21.8051 34.2133 16.9696C34.2133 7.61937 26.5379 0 17.1067 0C7.67544 0 0 7.61937 0 16.9817C0 26.344 7.67544 33.9634 17.1067 33.9634C18.8868 33.9634 20.667 33.6789 22.3862 33.1222C23.2214 33.7334 24.1542 34.3507 25.1601 34.9438C26.038 35.5127 27.2573 36.2631 28.9277 36.9772C29.5678 37.2314 31.6162 38 32.8294 38C32.9331 38 33.0367 37.9939 33.1281 37.9818C33.8353 37.885 34.3901 37.5643 34.6584 37.0983C34.8839 36.7049 34.8961 36.2389 34.6888 35.7487L34.6827 35.7366ZM23.0812 12.588C23.0812 12.237 23.0507 11.8739 22.9775 11.4805L22.9471 11.3171L22.8373 11.4381C22.435 11.8799 21.9533 12.3036 21.362 12.7393L21.3315 12.7635V12.7998C21.2157 15.3658 19.1002 17.3751 16.5153 17.3751C13.9304 17.3751 11.8149 15.3658 11.7052 12.7998V12.7635L11.6747 12.7393C11.0834 12.3036 10.5956 11.8739 10.1994 11.4381L10.0896 11.3171L10.0592 11.4805C9.99209 11.8799 9.95551 12.243 9.95551 12.588C9.95551 13.8347 10.3152 15.0511 10.998 16.1042C10.7359 16.6912 10.5347 17.254 10.3823 17.8229C8.74842 23.9232 12.1137 30.1567 18.076 32.2083C17.7468 32.2325 17.4176 32.2386 17.1006 32.2386C8.62649 32.2386 1.73139 25.3939 1.73139 16.9817C1.73139 8.56952 8.63258 1.7248 17.1067 1.7248C25.5807 1.7248 32.4758 8.56952 32.4758 16.9817C32.4758 20.7883 31.0493 24.4195 28.4583 27.2397C28.3485 22.9065 27.2755 17.599 22.8983 16.4431C22.5752 16.3583 22.2521 16.2978 21.9229 16.2676C22.6788 15.1782 23.0751 13.9073 23.0751 12.594L23.0812 12.588ZM12.071 18.2647C12.1319 18.0468 12.2051 17.8169 12.2966 17.5566C13.4488 18.5249 14.8936 19.0696 16.4056 19.0999C16.2227 19.4146 16.0703 19.7474 15.9483 20.0803C14.7595 23.3725 16.1739 27.397 19.7342 30.889C19.6184 30.8648 19.5026 30.8406 19.3928 30.8103C16.7348 30.1083 14.5035 28.4138 13.1196 26.0414C11.7357 23.6691 11.3638 20.9094 12.071 18.2707V18.2647Z" fill="white"/>
</svg>
