<svg width="42" height="46" viewBox="0 0 42 46" fill="none" xmlns="http://www.w3.org/2000/svg">
<path d="M28.0628 10.3998L28.0841 10.3414C28.4037 9.51852 28.5848 8.46209 28.5794 7.91529C28.5794 7.33133 28.3664 6.83762 28.0095 6.57219C27.706 6.34391 27.3172 6.28552 26.8911 6.40231C26.481 6.51379 26.1721 6.75799 25.9963 7.10306C25.7939 7.50652 25.7939 8.02677 26.007 8.56826C26.2786 9.2584 26.3585 9.63 26.1774 10.1237C26.1295 10.2299 26.0602 10.3679 25.975 10.5006C25.8578 10.6864 25.714 10.8722 25.5276 11.0899C24.1961 9.34864 22.1136 8.31344 19.93 8.31344C17.7463 8.31344 15.6638 9.34864 14.3323 11.0899C14.1779 10.9147 14.0447 10.7395 13.9329 10.5696C13.5121 9.81581 13.5494 9.46544 13.8956 8.57357C14.1086 8.03208 14.1086 7.51183 13.9062 7.10837C13.7305 6.7633 13.4216 6.5191 13.0115 6.40762C12.5854 6.29082 12.1966 6.34391 11.893 6.5775C11.5362 6.84824 11.3284 7.33664 11.3231 7.9206C11.3231 8.29752 11.4137 8.91864 11.5575 9.5026C11.6161 9.84766 11.7066 10.1874 11.8291 10.5113C11.9782 10.8988 12.1274 11.212 12.3084 11.4987C13.2618 13.0117 14.8862 14.0628 16.3136 14.9918L16.3615 14.9175L16.3189 14.9918C17.48 15.7456 18.5772 16.4623 18.9287 17.1684C18.7636 17.386 18.6464 17.6409 18.6464 17.9328C18.6464 18.6389 19.2216 19.2122 19.9353 19.2122C20.649 19.2122 21.2189 18.6389 21.2189 17.9328C21.2189 17.6409 21.1017 17.386 20.9366 17.1684C21.2881 16.457 22.3906 15.7403 23.5623 14.9812C24.9897 14.0575 26.6035 13.0063 27.5568 11.4934C27.7326 11.2067 27.887 10.8988 28.0309 10.5113C28.0415 10.4794 28.0522 10.4422 28.0628 10.4104V10.3998ZM24.1322 12.3321C23.6422 12.6984 23.1149 13.0435 22.5291 13.4204C21.5384 14.0628 20.601 14.668 19.93 15.39C19.2536 14.668 18.3162 14.0628 17.3309 13.4204C16.8249 13.0913 16.2497 12.7197 15.7224 12.3268C16.6971 10.9731 18.2629 10.1662 19.93 10.1662C21.597 10.1662 23.1629 10.9731 24.1375 12.3268L24.1322 12.3321Z" fill="white"/>
<path d="M41.8252 43.2766C41.5856 42.7086 41.1808 42.3051 40.6482 42.1193C40.0251 41.9017 39.2688 42.0025 38.5231 42.406C37.0904 43.1811 36.382 43.0696 34.6884 42.2786C26.3585 38.1696 18.9606 31.2365 21.1976 25.0147C22.0977 22.5196 24.5104 21.2508 27.0722 21.925C29.5967 22.5939 31.2158 25.0624 31.8869 29.2563C32.4515 32.7972 32.1852 36.7257 31.9721 38.7536V38.812L32.02 38.8439C32.6006 39.1995 33.2077 39.5499 33.8202 39.8844L33.9427 39.9534L33.964 39.8153C34.0173 39.4013 34.2037 37.9095 34.2836 35.9241C38.7095 32.0115 41.25 26.4108 41.25 20.5553C41.2607 9.22654 32.0041 0 20.6277 0C9.2513 0 0 9.22654 0 20.5606C0 31.8947 9.25663 41.1213 20.6277 41.1213C22.7794 41.1213 24.9205 40.7762 26.9923 40.102C27.9989 40.8452 29.128 41.5885 30.3423 42.3051C31.3969 42.9953 32.8669 43.8977 34.8801 44.7631C35.6524 45.071 38.1183 46 39.583 46C39.7108 46 39.828 45.9947 39.9398 45.9788C40.792 45.862 41.4631 45.4744 41.788 44.9117C42.0596 44.4339 42.0702 43.8712 41.8199 43.2766H41.8252ZM27.8338 15.2413C27.8338 14.8166 27.7965 14.3813 27.7113 13.8982L27.6793 13.7018L27.5462 13.8504C27.0615 14.3813 26.481 14.8962 25.7673 15.4218L25.73 15.4484V15.4961C25.5915 18.6017 23.0404 21.0331 19.9246 21.0331C16.8089 21.0331 14.2578 18.6017 14.1193 15.4961V15.4484L14.082 15.4218C13.363 14.8909 12.7825 14.376 12.3031 13.8451L12.17 13.6965L12.138 13.8929C12.0528 14.376 12.0155 14.8113 12.0155 15.236C12.0155 16.7437 12.4522 18.2142 13.2724 19.4883C12.9582 20.1997 12.7132 20.8792 12.5268 21.5693C10.5562 28.9537 14.6146 36.508 21.8047 38.9872C21.4053 39.0137 21.0112 39.0243 20.6277 39.0243C10.407 39.0243 2.09313 30.7374 2.09313 20.55C2.09313 10.3626 10.4124 2.09163 20.6277 2.09163C30.843 2.09163 39.1622 10.3785 39.1622 20.566C39.1622 25.1739 37.4419 29.5748 34.3209 32.9883C34.1824 27.7433 32.8935 21.3145 27.6154 19.913C27.2266 19.8121 26.8378 19.7378 26.4437 19.7006C27.3544 18.3788 27.8391 16.8445 27.8391 15.2519L27.8338 15.2413ZM14.556 22.1108C14.6253 21.8454 14.7158 21.5693 14.8276 21.2561C16.2177 22.4293 17.954 23.0876 19.7808 23.1248C19.5625 23.507 19.3761 23.9051 19.2323 24.3086C17.7996 28.2901 19.5039 33.1635 23.7967 37.3946C23.6582 37.3627 23.5197 37.3309 23.3866 37.2937C20.1803 36.4443 17.4907 34.3898 15.8236 31.5231C14.1566 28.6511 13.7039 25.3119 14.5613 22.1108H14.556Z" fill="white"/>
</svg>
